<svg width="24" height="24" viewBox="0 0 24 24" fill="none" xmlns="http://www.w3.org/2000/svg">
<mask id="mask0_607_544" style="mask-type:alpha" maskUnits="userSpaceOnUse" x="0" y="0" width="24" height="24">
<rect width="24" height="24" fill="#D9D9D9"/>
</mask>
<g mask="url(#mask0_607_544)">
<path d="M5.81397 15.4756C5.56978 15.4756 5.37307 15.3942 5.22384 15.2314C5.07461 15.0687 5 14.8787 5 14.6617C5 14.6074 5.0814 14.4175 5.24419 14.0919L11.1455 8.19063C11.2811 8.05497 11.4168 7.96 11.5524 7.90574C11.6881 7.85147 11.8373 7.82434 12.0001 7.82434C12.1629 7.82434 12.3121 7.85147 12.4478 7.90574C12.5835 7.96 12.7191 8.05497 12.8548 8.19063L18.7561 14.0919C18.8375 14.1733 18.8985 14.2615 18.9392 14.3564C18.9799 14.4514 19.0002 14.5531 19.0002 14.6617C19.0002 14.8787 18.9256 15.0687 18.7764 15.2314C18.6272 15.3942 18.4305 15.4756 18.1863 15.4756H5.81397Z" fill="#2F2F2F"/>
</g>
</svg>
