<svg width="14" height="15" viewBox="0 0 14 15" fill="none" xmlns="http://www.w3.org/2000/svg">
<g id="liabilities">
<mask id="mask0_561_2714" style="mask-type:alpha" maskUnits="userSpaceOnUse" x="0" y="0" width="14" height="15">
<rect id="Bounding box" y="0.629639" width="14" height="14" fill="#D9D9D9"/>
</mask>
<g mask="url(#mask0_561_2714)">
<path id="receipt" d="M1.75012 12.763V2.14633C1.75012 2.07827 1.77929 2.03209 1.83762 2.00779C1.89596 1.98348 1.94943 1.99563 1.99804 2.04424L2.42096 2.46716C2.47929 2.52549 2.54734 2.55466 2.62512 2.55466C2.7029 2.55466 2.77096 2.52549 2.82929 2.46716L3.29596 2.00049C3.35429 1.94216 3.42234 1.91299 3.50012 1.91299C3.5779 1.91299 3.64596 1.94216 3.70429 2.00049L4.17096 2.46716C4.22929 2.52549 4.29734 2.55466 4.37512 2.55466C4.4529 2.55466 4.52096 2.52549 4.57929 2.46716L5.04596 2.00049C5.10429 1.94216 5.17234 1.91299 5.25012 1.91299C5.3279 1.91299 5.39596 1.94216 5.45429 2.00049L5.92096 2.46716C5.97929 2.52549 6.04734 2.55466 6.12512 2.55466C6.2029 2.55466 6.27096 2.52549 6.32929 2.46716L6.79596 2.00049C6.85429 1.94216 6.92234 1.91299 7.00012 1.91299C7.0779 1.91299 7.14596 1.94216 7.20429 2.00049L7.67096 2.46716C7.72929 2.52549 7.79734 2.55466 7.87512 2.55466C7.9529 2.55466 8.02096 2.52549 8.07929 2.46716L8.54596 2.00049C8.60429 1.94216 8.67234 1.91299 8.75012 1.91299C8.8279 1.91299 8.89596 1.94216 8.95429 2.00049L9.42096 2.46716C9.47929 2.52549 9.54734 2.55466 9.62512 2.55466C9.7029 2.55466 9.77096 2.52549 9.82929 2.46716L10.296 2.00049C10.3543 1.94216 10.4223 1.91299 10.5001 1.91299C10.5779 1.91299 10.646 1.94216 10.7043 2.00049L11.171 2.46716C11.2293 2.52549 11.2973 2.55466 11.3751 2.55466C11.4529 2.55466 11.521 2.52549 11.5793 2.46716L12.0022 2.04424C12.0508 1.99563 12.1043 1.98348 12.1626 2.00779C12.221 2.03209 12.2501 2.07827 12.2501 2.14633V12.763C12.2501 12.8991 12.1918 12.9915 12.0751 13.0401C11.9585 13.0887 11.8515 13.0644 11.7543 12.9672L11.5793 12.7922C11.521 12.7338 11.4529 12.7047 11.3751 12.7047C11.2973 12.7047 11.2293 12.7338 11.171 12.7922L10.7043 13.2588C10.646 13.3172 10.5779 13.3463 10.5001 13.3463C10.4223 13.3463 10.3543 13.3172 10.296 13.2588L9.82929 12.7922C9.77096 12.7338 9.7029 12.7047 9.62512 12.7047C9.54734 12.7047 9.47929 12.7338 9.42096 12.7922L8.95429 13.2588C8.89596 13.3172 8.8279 13.3463 8.75012 13.3463C8.67234 13.3463 8.60429 13.3172 8.54596 13.2588L8.07929 12.7922C8.02096 12.7338 7.9529 12.7047 7.87512 12.7047C7.79734 12.7047 7.72929 12.7338 7.67096 12.7922L7.20429 13.2588C7.14596 13.3172 7.0779 13.3463 7.00012 13.3463C6.92234 13.3463 6.85429 13.3172 6.79596 13.2588L6.32929 12.7922C6.27096 12.7338 6.2029 12.7047 6.12512 12.7047C6.04734 12.7047 5.97929 12.7338 5.92096 12.7922L5.45429 13.2588C5.39596 13.3172 5.3279 13.3463 5.25012 13.3463C5.17234 13.3463 5.10429 13.3172 5.04596 13.2588L4.57929 12.7922C4.52096 12.7338 4.4529 12.7047 4.37512 12.7047C4.29734 12.7047 4.22929 12.7338 4.17096 12.7922L3.70429 13.2588C3.64596 13.3172 3.5779 13.3463 3.50012 13.3463C3.42234 13.3463 3.35429 13.3172 3.29596 13.2588L2.82929 12.7922C2.77096 12.7338 2.7029 12.7047 2.62512 12.7047C2.54734 12.7047 2.47929 12.7338 2.42096 12.7922L2.24596 12.9672C2.14873 13.0644 2.04179 13.0887 1.92512 13.0401C1.80846 12.9915 1.75012 12.8991 1.75012 12.763ZM4.08346 10.5463H9.91679C10.0821 10.5463 10.2206 10.4904 10.3324 10.3786C10.4442 10.2668 10.5001 10.1283 10.5001 9.96299C10.5001 9.79772 10.4442 9.65917 10.3324 9.54737C10.2206 9.43556 10.0821 9.37966 9.91679 9.37966H4.08346C3.91818 9.37966 3.77964 9.43556 3.66783 9.54737C3.55602 9.65917 3.50012 9.79772 3.50012 9.96299C3.50012 10.1283 3.55602 10.2668 3.66783 10.3786C3.77964 10.4904 3.91818 10.5463 4.08346 10.5463ZM4.08346 8.21299H9.91679C10.0821 8.21299 10.2206 8.15709 10.3324 8.04529C10.4442 7.93348 10.5001 7.79494 10.5001 7.62966C10.5001 7.46438 10.4442 7.32584 10.3324 7.21404C10.2206 7.10223 10.0821 7.04633 9.91679 7.04633H4.08346C3.91818 7.04633 3.77964 7.10223 3.66783 7.21404C3.55602 7.32584 3.50012 7.46438 3.50012 7.62966C3.50012 7.79494 3.55602 7.93348 3.66783 8.04529C3.77964 8.15709 3.91818 8.21299 4.08346 8.21299ZM4.08346 5.87966H9.91679C10.0821 5.87966 10.2206 5.82376 10.3324 5.71195C10.4442 5.60015 10.5001 5.46161 10.5001 5.29633C10.5001 5.13105 10.4442 4.99251 10.3324 4.8807C10.2206 4.7689 10.0821 4.71299 9.91679 4.71299H4.08346C3.91818 4.71299 3.77964 4.7689 3.66783 4.8807C3.55602 4.99251 3.50012 5.13105 3.50012 5.29633C3.50012 5.46161 3.55602 5.60015 3.66783 5.71195C3.77964 5.82376 3.91818 5.87966 4.08346 5.87966Z" fill="#9E9E9E"/>
</g>
</g>
</svg>
