<svg width="64" height="30" viewBox="0 0 64 30" fill="none" xmlns="http://www.w3.org/2000/svg">
<path d="M19.5919 24.8363L17.6631 24.8575C17.6631 24.8575 17.6631 21.8625 17.6631 20.7732C17.0228 21.2162 16.4731 21.6451 15.8792 21.9984C13.9131 23.1702 11.4849 22.8672 9.90835 21.2826C8.55332 19.9206 8.19593 17.6524 9.06573 15.9259C9.96574 14.138 11.8976 13.1283 13.8537 13.381C15.3003 13.5682 16.4862 14.2034 17.4446 15.2947C18.8953 16.9457 20.3913 18.5524 22.0845 19.9628C22.9654 20.6957 23.9439 21.0128 25.0745 20.7038C26.2151 20.3917 27.0829 19.2088 27.0527 18.032C27.0205 16.7675 26.1607 15.6481 24.9859 15.3732C23.7436 15.0823 22.6664 15.4155 21.7704 16.3105C21.4413 16.6397 21.1553 17.0112 20.7748 17.4501C20.2533 16.9387 19.6855 16.4313 19.1772 15.8696C18.6839 15.3239 18.247 14.7269 17.799 14.142C17.7174 14.0353 17.6631 13.8813 17.657 13.7464L17.5604 11.3766L19.5053 11.3565L19.6785 15.5192C20.051 15.2142 20.355 14.9917 20.6288 14.736C22.2476 13.2289 24.9114 12.9571 26.7889 14.1169C28.9725 15.4659 29.5372 18.6501 28.0815 20.7652C26.6158 22.8934 23.0198 23.5125 20.6208 21.3008C19.3644 20.143 18.1553 18.9491 17.0802 17.6081C16.2446 16.5662 15.3023 15.5776 13.8768 15.3199C12.7845 15.1216 11.8161 15.3904 11.1235 16.2622C10.456 17.1038 10.2708 18.0883 10.756 19.0951C11.2483 20.1159 12.0355 20.742 13.2214 20.8045C14.0188 20.8467 14.7104 20.6142 15.3194 20.1229C15.7996 19.7353 16.2627 19.3276 16.7953 18.8766C17.1919 19.2592 17.6288 19.6689 18.0527 20.0907C18.4785 20.5155 18.9074 20.9394 19.304 21.3914C19.4449 21.5524 19.5668 21.787 19.5778 21.9944L19.5909 24.8373L19.5919 24.8363Z" fill="#184734"/>
<path d="M30.3856 9.77734C30.3505 9.51011 30.2687 9.28936 30.1402 9.11509C30.0117 8.94081 29.8306 8.79558 29.597 8.6794C29.375 8.56321 29.1063 8.47027 28.7908 8.40055C28.4637 8.33084 28.0898 8.26113 27.6693 8.19142C27.1552 8.11009 26.6879 7.99972 26.2673 7.8603C25.8467 7.70926 25.4904 7.51175 25.1983 7.26776C24.8945 7.02377 24.6609 6.73331 24.4973 6.39638C24.3337 6.04782 24.252 5.63537 24.252 5.15902V4.74075H25.7415C25.7532 4.99636 25.8116 5.22292 25.9168 5.42043C26.0103 5.61794 26.1621 5.78641 26.3724 5.92583C26.5827 6.06525 26.8631 6.18144 27.2136 6.27438C27.5524 6.35571 27.973 6.41961 28.4754 6.46609C29.6671 6.59389 30.5433 6.94244 31.1041 7.51175C31.6649 8.08105 31.9745 8.83625 32.0329 9.77734H55.6692V11.4155H32.039V24.9622H30.1402V11.4155H8.9364V9.77734H30.3856Z" fill="#184734"/>
<path d="M45.9259 11.2593H48.0274V17.6742C48.8057 16.4911 49.8642 15.8995 51.2029 15.8995C52.3496 15.8995 53.2265 16.2835 53.8336 17.0515C54.2902 17.6275 54.5185 18.4812 54.5185 19.6124V24.8889H52.417V19.8849C52.417 19.1272 52.2873 18.572 52.0279 18.2191C51.7373 17.8195 51.2755 17.6197 50.6425 17.6197C50.0146 17.6197 49.4387 17.8896 48.9146 18.4293C48.5307 18.8185 48.2349 19.3244 48.0274 19.9471V24.8889H45.9259V11.2593Z" fill="#184734"/>
<path d="M39.7307 24.8889C38.7836 24.8889 37.9468 24.7168 37.2203 24.3727C36.5068 24.0148 35.9554 23.5193 35.5662 22.8861C35.177 22.2391 34.9759 21.4682 34.963 20.5735H36.8117C36.8117 21.4132 37.0776 22.0739 37.6095 22.5557C38.1414 23.0375 38.842 23.2784 39.7112 23.2784C40.4507 23.2784 41.041 23.1338 41.4821 22.8448C41.9362 22.5419 42.1632 22.1359 42.1632 21.6265C42.1632 21.2274 42.0335 20.9108 41.774 20.6767C41.5275 20.429 41.1967 20.2363 40.7815 20.0986C40.3664 19.961 39.9058 19.8439 39.3999 19.7476C38.9069 19.6375 38.4074 19.5136 37.9014 19.3759C37.4084 19.2245 36.9544 19.0387 36.5392 18.8184C36.1241 18.5844 35.7868 18.2747 35.5273 17.8893C35.2678 17.5039 35.1381 17.0014 35.1381 16.382C35.1381 15.735 35.3132 15.1638 35.6635 14.6682C36.0138 14.1589 36.5068 13.7597 37.1425 13.4707C37.7912 13.1816 38.5566 13.037 39.4388 13.037C40.775 13.037 41.8454 13.3674 42.6497 14.0281C43.467 14.6751 43.9081 15.5698 43.973 16.7124H42.1243C42.0854 16.0516 41.8259 15.5423 41.3459 15.1844C40.8788 14.8128 40.2431 14.6269 39.4388 14.6269C38.6863 14.6269 38.109 14.7852 37.7068 15.1018C37.3176 15.4184 37.123 15.8176 37.123 16.2994C37.123 16.6711 37.2528 16.967 37.5122 17.1873C37.7717 17.3937 38.109 17.5589 38.5242 17.6828C38.9393 17.7929 39.3934 17.8962 39.8864 17.9925C40.3923 18.0751 40.8918 18.1852 41.3848 18.3229C41.8908 18.4605 42.3513 18.6533 42.7665 18.901C43.1816 19.135 43.5124 19.4585 43.7589 19.8715C44.0184 20.2844 44.1481 20.8213 44.1481 21.482C44.1481 22.5419 43.746 23.3747 42.9416 23.9804C42.1373 24.5861 41.0669 24.8889 39.7307 24.8889Z" fill="#184734"/>
<path d="M38.2222 13.9259V10.963H39.8519V13.9259H38.2222Z" fill="#184734"/>
</svg>
