<svg width="360" height="491" viewBox="0 0 360 491" fill="none" xmlns="http://www.w3.org/2000/svg">
<g clip-path="url(#clip0_756_938)">
<rect width="360" height="491" fill="#F8F9FA"/>
<path opacity="0.5" fill-rule="evenodd" clip-rule="evenodd" d="M1.5299e-05 120V81V80V41V40V1V0H1.00002H40H41H80H81H120H121H160H161H200H201H240H241H280H281H320H321H360H361H400H401H440H441H480H481L481 360H480V321H441V360H480V361H1.5299e-05L0 360L1.5299e-05 321V320V281V280V241V240V201V200V161V160V121V120ZM480 320V281H441V320H480ZM480 280V241H441V280H480ZM480 240V201H441V240H480ZM480 200V161H441L441 200H480ZM480 160V121H441V160H480ZM480 120V81H441V120H480ZM480 80V41H441V80H480ZM480 40V1H441V40H480ZM401 1H440V40H401V1ZM401 41H440V80H401V41ZM401 81H440V120H401V81ZM401 121H440V160H401V121ZM401 161H440L440 200H401L401 161ZM401 201H440V240H401V201ZM401 241H440V280H401V241ZM401 281H440V320H401V281ZM401 321H440V360H401V321ZM400 360V321H361V360H400ZM400 320V281H361V320H400ZM400 280V241H361V280H400ZM400 240V201H361V240H400ZM400 200L400 161H361L361 200H400ZM400 160V121H361V160H400ZM400 120V81H361V120H400ZM400 80V41H361V80H400ZM400 40V1H361V40H400ZM321 1H360V40H321V1ZM321 41H360V80H321V41ZM321 81H360V120H321V81ZM321 121H360V160H321V121ZM321 161H360L360 200H321L321 161ZM321 201H360V240H321V201ZM321 241H360V280H321V241ZM321 281H360V320H321V281ZM321 321H360V360H321V321ZM320 360V321H281V360H320ZM320 320V281H281V320H320ZM320 280V241H281V280H320ZM320 240V201H281V240H320ZM320 200L320 161H281L281 200H320ZM320 160V121H281V160H320ZM320 120V81H281V120H320ZM320 80V41H281V80H320ZM320 40V1H281V40H320ZM241 1H280V40H241V1ZM241 41H280V80H241V41ZM241 81H280V120H241V81ZM241 121H280V160H241V121ZM241 161H280L280 200H241L241 161ZM241 201H280V240H241V201ZM241 241H280V280H241V241ZM241 281H280V320H241V281ZM241 321H280V360H241V321ZM240 360V321H201V360H240ZM240 320V281H201V320H240ZM240 280V241H201V280H240ZM240 240V201H201V240H240ZM240 200L240 161H201L201 200H240ZM240 160V121H201V160H240ZM240 120V81H201V120H240ZM240 80V41H201V80H240ZM240 40V1H201V40H240ZM161 1H200V40H161V1ZM161 41H200V80H161V41ZM161 81H200V120H161V81ZM161 121H200V160H161V121ZM161 161H200L200 200H161L161 161ZM161 201H200V240H161V201ZM161 241H200V280H161V241ZM161 281H200V320H161V281ZM161 321H200V360H161V321ZM160 360V321H121V360H160ZM160 320V281H121V320H160ZM160 280V241H121L121 280H160ZM160 240V201H121V240H160ZM160 200L160 161H121V200H160ZM160 160V121H121V160H160ZM160 120V81H121L121 120H160ZM160 80V41H121V80H160ZM160 40V1H121V40H160ZM81 1H120V40H81V1ZM81 41H120V80H81V41ZM81 81H120L120 120H81L81 81ZM81 121H120V160H81V121ZM81 161H120V200H81V161ZM81 201H120V240H81V201ZM81 241H120L120 280H81L81 241ZM81 281H120V320H81V281ZM81 321H120V360H81V321ZM80 360V321H41V360H80ZM80 320V281H41L41 320H80ZM80 280L80 241H41V280H80ZM80 240V201H41L41 240H80ZM80 200V161H41V200H80ZM80 160V121H41L41 160H80ZM80 120L80 81H41V120H80ZM80 80V41H41L41 80H80ZM80 40V1H41V40H80ZM1.00002 1H40V40H1.00001L1.00002 1ZM1.00001 41H40L40 80H1.00001L1.00001 41ZM1.00001 81H40V120H1.00001L1.00001 81ZM1.00001 121H40L40 160H1.00001L1.00001 121ZM1.00001 161H40V200H1.00001L1.00001 161ZM1.00001 201H40L40 240H1.00001L1.00001 201ZM1.00001 241H40V280H1L1.00001 241ZM1 281H40L40 320H1L1 281ZM1 321H40V360H1L1 321Z" fill="url(#paint0_linear_756_938)"/>
<path d="M356.478 331.419C315.751 374.496 246.147 391.197 203.395 337.319C202.045 335.619 200.72 333.844 199.42 332.019C188.819 316.968 182.344 301.867 179.294 287.166C177.844 280.266 177.144 273.441 177.144 266.79C176.969 173.735 309.201 108.582 372.604 203.537C402.431 248.214 388.23 297.842 356.478 331.419Z" fill="#FFDA75"/>
<path d="M356.478 331.419C315.751 374.496 246.147 391.197 203.395 337.319C203.145 335.444 202.87 333.344 202.57 330.994C200.77 316.968 203.12 314.018 203.345 311.743C203.57 309.493 203.57 306.067 201.32 301.567C199.07 297.092 199.47 294.017 199.47 294.017C198.045 294.017 188.844 289.742 185.869 286.291C184.869 286.791 183.569 287.116 181.994 287.191C181.019 287.241 180.119 287.216 179.319 287.141C173.468 286.591 172.268 282.941 173.618 280.341C169.568 279.416 168.643 276.141 169.918 273.266C171.718 272.666 173.518 272.091 175.219 271.541C174.669 270.166 175.494 268.49 177.194 266.765C178.894 265.04 181.444 263.29 184.469 261.715C183.369 253.84 182.344 248.989 181.294 246.139C194.67 246.739 202.245 249.089 205.545 251.465C211.245 255.59 225.446 286.966 225.446 286.966C226.021 286.691 226.596 286.416 227.121 286.141C227.121 286.141 230.846 290.792 232.122 297.767C237.222 297.767 244.172 307.868 245.047 312.318C245.297 313.593 245.772 315.243 246.322 316.968C260.523 295.817 277.849 271.091 277.849 271.091L277.774 222.613C277.774 222.613 254.198 218.613 253.573 215.938C252.998 213.438 272.299 200.312 289.6 190.911C289.1 194.987 293.375 198.787 299.625 198.537C303.475 198.387 309.301 195.712 310.401 197.412C311.501 199.112 309.026 204.287 311.576 208.962C314.126 213.613 318.226 218.688 319.926 218.838C320.851 218.938 323.101 217.688 324.951 215.988C330.752 215.413 336.377 218.213 336.052 221.188C335.477 226.488 320.676 227.138 320.676 227.138C320.676 227.138 318.501 248.589 319.576 267.515C319.576 267.515 322.551 270.416 323.701 272.891C324.851 275.366 330.177 283.341 336.052 289.642C342.827 297.042 352.003 311.743 356.478 331.419Z" fill="#FFFEF2"/>
<path d="M289.075 211.787C288.4 211.587 288.025 210.887 288.25 210.212L289.2 207.137C289.4 206.462 290.1 206.087 290.775 206.312C291.45 206.512 291.825 207.212 291.6 207.887L290.65 210.962C290.45 211.612 289.75 211.987 289.075 211.787Z" fill="#184734"/>
<path d="M298.225 213.563C297.55 213.363 297.175 212.663 297.4 211.987L298.35 208.912C298.55 208.237 299.25 207.862 299.925 208.087C300.6 208.287 300.975 208.987 300.75 209.662L299.8 212.738C299.6 213.388 298.9 213.763 298.225 213.563Z" fill="#184734"/>
<path d="M299.026 182.486C301.126 175.761 307.776 177.986 308.301 181.886C313.401 178.886 317.852 183.436 316.152 188.436C321.402 188.536 323.777 194.587 322.027 198.112C327.077 199.537 326.202 204.962 323.727 206.587C323.852 206.537 327.627 206.587 327.627 211.362C327.627 214.763 321.552 219.013 319.852 218.863C318.152 218.713 314.051 213.638 311.501 208.987C308.951 204.337 311.426 199.137 310.326 197.437C309.226 195.737 303.401 198.412 299.551 198.562C290.7 198.887 285.8 191.111 292.85 185.986C289.475 183.661 293.7 178.386 299.026 182.486Z" fill="#184734"/>
<path d="M319.927 219.738C319.877 219.738 319.802 219.738 319.752 219.738C317.326 219.513 312.926 213.438 310.726 209.412C309.051 206.337 309.376 203.112 309.601 200.737C309.726 199.562 309.851 198.337 309.576 197.912C309.576 197.912 309.401 197.662 308.251 197.787C307.276 197.887 306.051 198.187 304.726 198.512C302.976 198.937 301.151 199.387 299.551 199.437C294.475 199.637 290.2 197.287 288.925 193.611C288 190.936 288.95 188.136 291.475 185.936C290.925 185.261 290.675 184.461 290.75 183.611C290.875 182.286 291.8 181.111 293.15 180.511C294.775 179.811 296.7 180.036 298.55 181.161C299.701 178.561 301.776 177.136 304.201 177.336C306.276 177.511 308.076 178.861 308.801 180.636C311.051 179.686 313.351 179.911 315.101 181.336C316.901 182.811 317.702 185.211 317.226 187.686C319.277 188.036 321.027 189.236 322.177 191.136C323.402 193.161 323.752 195.612 323.127 197.612C324.977 198.412 326.177 199.862 326.477 201.712C326.702 203.237 326.302 204.862 325.452 206.087C325.777 206.212 326.102 206.387 326.402 206.612C327.352 207.287 328.477 208.687 328.477 211.387C328.477 213.588 326.527 215.688 325.352 216.763C323.677 218.263 321.327 219.738 319.927 219.738ZM308.801 195.987C309.801 195.987 310.601 196.237 311.051 196.937C311.651 197.862 311.501 199.187 311.351 200.862C311.126 203.112 310.851 205.937 312.251 208.512C315.026 213.588 318.877 217.838 319.902 217.938C320.352 217.988 322.277 217.113 324.177 215.388C325.802 213.913 326.727 212.437 326.727 211.312C326.727 209.912 326.377 208.887 325.677 208.212C324.902 207.462 323.927 207.412 323.802 207.412C323.427 207.462 323.077 207.262 322.927 206.912C322.727 206.512 322.877 206.037 323.227 205.787C324.327 205.062 325.002 203.362 324.777 201.887C324.627 200.862 323.977 199.487 321.777 198.887C321.527 198.812 321.327 198.637 321.202 198.412C321.102 198.162 321.102 197.912 321.227 197.662C322.027 196.062 321.802 193.761 320.702 191.961C320.102 190.961 318.702 189.311 316.126 189.261C315.851 189.261 315.576 189.111 315.426 188.886C315.276 188.661 315.226 188.361 315.301 188.111C316.026 185.986 315.501 183.836 314.026 182.611C312.601 181.461 310.676 181.436 308.726 182.561C308.476 182.711 308.176 182.711 307.901 182.586C307.626 182.461 307.451 182.211 307.426 181.911C307.226 180.411 305.751 179.136 304.101 178.986C302.176 178.836 300.651 180.161 299.851 182.661C299.776 182.936 299.551 183.136 299.276 183.236C299.001 183.311 298.701 183.261 298.475 183.086C296.85 181.836 295.175 181.436 293.875 182.011C293.1 182.336 292.575 182.986 292.5 183.661C292.45 184.236 292.725 184.736 293.325 185.136C293.55 185.286 293.7 185.561 293.7 185.836C293.7 186.111 293.575 186.386 293.35 186.561C290.825 188.386 289.825 190.711 290.6 192.911C291.6 195.812 295.25 197.712 299.501 197.562C300.901 197.512 302.651 197.087 304.326 196.687C306.026 196.387 307.576 195.987 308.801 195.987Z" fill="#184734"/>
<path d="M358.053 340.769C357.628 340.769 357.253 340.444 357.178 340.019C353.853 317.093 343.703 299.267 335.302 290.241C329.302 283.791 323.977 275.766 322.802 273.266C321.727 270.965 318.876 268.19 318.851 268.165C318.701 268.015 318.601 267.815 318.601 267.59C317.526 248.814 319.676 227.288 319.701 227.063C319.751 226.638 320.101 226.288 320.527 226.288C325.952 226.038 334.702 224.438 335.077 221.113C335.177 220.188 334.302 219.338 333.752 218.938C331.227 216.988 325.952 215.988 321.527 217.688C321.077 217.863 320.577 217.638 320.402 217.188C320.226 216.738 320.452 216.238 320.902 216.063C326.102 214.062 331.952 215.363 334.827 217.563C336.252 218.663 336.952 219.988 336.802 221.313C336.227 226.638 324.702 227.763 321.352 227.988C321.002 231.913 319.401 250.564 320.326 267.165C321.077 267.94 323.377 270.365 324.402 272.541C325.502 274.891 330.802 282.841 336.602 289.066C345.178 298.292 355.528 316.443 358.929 339.794C359.004 340.269 358.679 340.719 358.179 340.794C358.154 340.769 358.104 340.769 358.053 340.769Z" fill="#184734"/>
<path d="M246.222 317.868C246.047 317.868 245.897 317.818 245.747 317.718C245.347 317.443 245.247 316.893 245.497 316.493C258.823 296.667 275.099 273.366 276.874 270.815L276.799 223.338C275.024 223.038 270.323 222.188 265.623 221.138C262.123 220.363 259.323 219.613 257.248 218.938C253.472 217.713 252.797 216.863 252.622 216.138C252.447 215.363 252.022 213.562 265.923 204.187C274.223 198.587 284.374 192.561 293.049 188.061C293.475 187.836 294 188.011 294.225 188.436C294.45 188.861 294.275 189.386 293.85 189.611C285.499 193.936 275.674 199.762 267.548 205.187C257.798 211.712 254.722 214.863 254.372 215.738C254.722 216.113 256.598 217.338 266.423 219.513C272.148 220.788 277.774 221.738 277.824 221.738C278.249 221.813 278.549 222.163 278.549 222.588L278.649 271.09C278.649 271.265 278.599 271.441 278.499 271.591C278.324 271.841 261.023 296.567 246.972 317.468C246.797 317.718 246.522 317.868 246.222 317.868Z" fill="#184734"/>
<path d="M280.474 362.47C279.999 362.47 279.599 362.095 279.599 361.62C279.449 353.67 279.774 320.918 282.699 306.242C285.449 292.442 286.949 284.491 286.174 281.416C285.549 278.966 279.499 273.641 277.224 271.791C276.849 271.491 276.799 270.941 277.099 270.565C277.399 270.19 277.949 270.14 278.324 270.44C279.199 271.166 286.974 277.541 287.874 280.991C288.749 284.441 287.299 292.142 284.424 306.592C281.524 321.118 281.199 353.67 281.349 361.595C281.374 362.045 280.974 362.445 280.474 362.47C280.499 362.47 280.474 362.47 280.474 362.47Z" fill="#184734"/>
<path d="M300.45 351.72C300.425 351.72 300.425 351.72 300.4 351.72C299.925 351.695 299.55 351.27 299.575 350.795C299.6 350.57 300.875 328.443 301.35 316.293C301.55 311.343 302.551 286.366 303.801 280.891C304.876 276.191 317.551 267.74 319.001 266.79C319.401 266.515 319.951 266.64 320.201 267.04C320.476 267.44 320.351 267.99 319.951 268.24C316.201 270.715 306.276 277.866 305.501 281.266C304.551 285.416 303.601 302.767 303.101 316.343C302.651 328.493 301.35 350.645 301.325 350.87C301.3 351.37 300.925 351.72 300.45 351.72Z" fill="#184734"/>
<path d="M315.151 293.192C315.026 293.192 314.926 293.192 314.801 293.167C313.526 293.042 312.676 292.167 312.476 290.817C312.126 288.366 310.226 284.791 308.226 282.866C307.876 282.541 307.876 281.966 308.201 281.641C308.526 281.316 309.101 281.291 309.426 281.616C311.726 283.866 313.776 287.716 314.201 290.592C314.301 291.267 314.651 291.392 314.976 291.442C316.776 291.617 321.551 288.566 324.477 280.616C324.652 280.166 325.152 279.941 325.602 280.091C326.052 280.266 326.277 280.766 326.127 281.216C323.351 288.766 318.376 293.192 315.151 293.192Z" fill="#184734"/>
<path d="M296.125 288.716C293.05 288.716 289.4 288.366 286.699 286.941C286.274 286.716 286.099 286.191 286.324 285.766C286.549 285.341 287.074 285.166 287.499 285.391C292.425 287.966 301.575 286.591 301.65 286.566C302.125 286.491 302.575 286.816 302.65 287.291C302.725 287.766 302.4 288.216 301.925 288.291C301.725 288.341 299.25 288.716 296.125 288.716Z" fill="#184734"/>
<path d="M275.824 293.067C275.774 293.067 275.724 293.067 275.699 293.067C273.073 292.942 270.398 289.092 269.723 287.716C269.523 287.291 269.698 286.766 270.123 286.541C270.548 286.341 271.073 286.516 271.298 286.941C272.023 288.441 274.274 291.242 275.774 291.317C276.024 291.317 276.374 291.267 276.749 290.667C277.224 289.892 277.699 288.967 278.224 287.991C280.049 284.541 281.924 280.966 284.399 280.741C284.874 280.691 285.299 281.041 285.349 281.541C285.399 282.016 285.049 282.441 284.549 282.491C283.024 282.641 281.149 286.191 279.774 288.817C279.249 289.817 278.724 290.767 278.249 291.592C277.499 292.792 276.549 293.067 275.824 293.067Z" fill="#184734"/>
<path d="M292.5 231.888C291.525 231.888 290.55 231.713 289.6 231.338C289.15 231.163 288.925 230.663 289.1 230.213C289.275 229.763 289.775 229.538 290.225 229.713C292.425 230.563 294.225 230.013 295.35 229.413C297.175 228.438 298.6 226.588 299.075 224.563C299.175 224.088 299.65 223.788 300.126 223.913C300.601 224.013 300.901 224.488 300.776 224.963C300.176 227.513 298.45 229.763 296.15 230.963C295.025 231.563 293.775 231.888 292.5 231.888Z" fill="#184734"/>
<path d="M322.101 223.188C321.826 223.188 321.551 223.063 321.376 222.788C321.101 222.388 321.226 221.838 321.626 221.563C323.701 220.188 328.426 219.188 331.427 219.963C331.902 220.088 332.177 220.563 332.052 221.038C331.927 221.513 331.452 221.788 330.977 221.663C328.326 220.988 324.126 222.013 322.601 223.038C322.426 223.138 322.276 223.188 322.101 223.188Z" fill="#184734"/>
<path d="M259.773 339.644C259.323 339.644 258.948 339.319 258.898 338.869C258.598 336.269 257.398 329.043 255.473 326.843C254.748 325.993 254.048 326.168 252.648 326.768C251.873 327.093 251.173 327.418 250.423 327.218C249.998 327.093 249.048 326.843 246.797 321.193C245.572 318.093 244.497 314.693 244.072 312.493C243.222 308.267 236.547 298.667 232.022 298.667C231.547 298.667 231.147 298.267 231.147 297.792C231.147 297.317 231.547 296.917 232.022 296.917C235.447 296.917 238.972 300.642 240.747 302.842C243.297 305.992 245.322 309.742 245.797 312.143C246.697 316.643 249.873 324.593 250.948 325.518C251.148 325.518 251.648 325.293 251.973 325.168C253.148 324.668 255.148 323.818 256.798 325.693C259.473 328.743 260.598 338.269 260.623 338.669C260.673 339.144 260.323 339.594 259.848 339.644C259.823 339.644 259.798 339.644 259.773 339.644Z" fill="#184734"/>
<path d="M225.371 287.867C225.046 287.867 224.721 287.667 224.571 287.342C219.696 276.566 209.32 255.34 204.97 252.19C203.12 250.865 197.07 247.689 180.719 247.014C180.244 246.989 179.869 246.589 179.869 246.114C179.894 245.639 180.294 245.264 180.769 245.264C196.97 245.939 203.52 248.989 205.97 250.765C211.795 254.965 225.571 285.341 226.146 286.616C226.346 287.067 226.146 287.567 225.721 287.767C225.621 287.842 225.496 287.867 225.371 287.867Z" fill="#184734"/>
<path d="M176.094 281.516C171.918 281.516 170.093 279.791 169.343 278.716C168.193 277.016 168.168 274.691 169.243 272.566C169.468 272.141 169.993 271.966 170.418 272.191C170.843 272.416 171.018 272.941 170.793 273.366C169.993 274.941 169.993 276.591 170.768 277.766C171.818 279.316 174.168 280.016 177.369 279.741C181.694 279.366 185.019 277.816 185.819 275.791C186.319 274.541 185.644 273.416 184.994 272.716C184.669 272.366 184.694 271.816 185.044 271.491C185.394 271.165 185.944 271.191 186.269 271.541C187.669 273.066 188.069 274.791 187.444 276.441C186.394 279.166 182.669 281.066 177.519 281.491C177.044 281.491 176.569 281.516 176.094 281.516Z" fill="#184734"/>
<path d="M180.919 288.141C175.819 288.141 173.769 286.216 172.994 284.991C172.044 283.516 171.969 281.641 172.819 279.966C173.044 279.541 173.569 279.366 173.994 279.591C174.419 279.816 174.594 280.341 174.369 280.766C173.794 281.866 173.844 283.066 174.444 284.041C175.069 285.016 176.869 286.616 181.894 286.366C185.969 286.166 187.594 284.291 187.744 282.741C187.895 281.141 186.594 279.716 184.519 279.191C184.044 279.066 183.769 278.591 183.869 278.141C183.994 277.666 184.469 277.391 184.919 277.491C187.869 278.216 189.695 280.391 189.47 282.916C189.245 285.166 187.169 287.866 181.969 288.116C181.619 288.141 181.269 288.141 180.919 288.141Z" fill="#184734"/>
<path d="M232.046 298.667C231.621 298.667 231.271 298.367 231.196 297.942C230.146 292.167 227.696 288.141 226.746 287.366C220.646 292.042 201.045 294.942 199.47 294.942C197.795 294.942 188.294 290.492 185.194 286.916C184.869 286.541 184.919 285.991 185.269 285.691C185.644 285.366 186.194 285.416 186.494 285.766C189.444 289.166 198.345 293.142 199.445 293.192C200.87 293.192 220.696 290.142 225.896 285.791C226.246 285.516 226.696 285.441 227.146 285.591C228.946 286.241 231.796 291.517 232.896 297.617C232.971 298.092 232.671 298.542 232.196 298.642C232.146 298.667 232.096 298.667 232.046 298.667Z" fill="#184734"/>
<path d="M205.37 351.52C204.945 351.52 204.595 351.22 204.52 350.795C204.52 350.745 203.495 344.995 201.72 331.119C200.27 319.843 201.445 315.643 202.17 313.118C202.345 312.518 202.47 312.068 202.495 311.668C202.72 309.593 202.745 306.317 200.57 301.992C198.219 297.317 198.594 294.092 198.619 293.942C198.669 293.467 199.119 293.117 199.595 293.192C200.07 293.242 200.42 293.692 200.345 294.167C200.345 294.217 200.045 297.067 202.12 301.192C204.52 305.942 204.47 309.543 204.245 311.843C204.195 312.393 204.045 312.943 203.845 313.593C203.17 315.968 202.07 319.968 203.445 330.894C205.22 344.72 206.245 350.42 206.245 350.495C206.32 350.97 206.02 351.42 205.545 351.52C205.47 351.52 205.42 351.52 205.37 351.52Z" fill="#184734"/>
<path d="M203.345 312.643C202.895 312.643 202.495 312.293 202.47 311.843C202.445 311.368 202.795 310.943 203.27 310.918C203.495 310.893 224.896 309.218 231.272 297.392C231.497 296.967 232.022 296.817 232.447 297.042C232.872 297.267 233.022 297.792 232.797 298.217C225.996 310.893 204.32 312.593 203.395 312.668C203.37 312.643 203.37 312.643 203.345 312.643Z" fill="#184734"/>
<path d="M184.419 261.765C183.319 253.89 182.294 249.039 181.244 246.189C179.994 242.789 178.669 242.214 177.018 242.664C173.643 243.614 163.118 245.564 144.892 251.764C140.391 253.289 143.617 260.865 146.167 268.265C148.692 275.666 148.067 279.991 156.092 277.666C159.318 276.741 164.643 275.041 169.893 273.341C171.693 272.741 173.493 272.165 175.193 271.615C174.093 268.865 178.344 264.915 184.419 261.765Z" fill="#FFFEF2"/>
<path d="M152.467 279.141C151.467 279.141 150.617 278.941 149.917 278.541C147.992 277.466 147.342 275.216 146.442 272.09C146.142 271.015 145.792 269.79 145.342 268.49C145.092 267.74 144.817 266.99 144.567 266.265C142.667 260.89 140.892 255.79 142.292 252.889C142.767 251.914 143.542 251.239 144.617 250.889C158.818 246.064 168.368 243.814 173.518 242.589C174.943 242.264 176.069 241.989 176.794 241.789C179.819 240.939 181.219 243.514 182.069 245.839C183.169 248.814 184.194 253.814 185.294 261.59C185.344 261.965 185.169 262.315 184.844 262.49C178.844 265.615 175.218 269.215 176.019 271.215C176.119 271.44 176.094 271.69 175.994 271.915C175.894 272.14 175.694 272.29 175.469 272.365C173.768 272.916 171.993 273.516 170.168 274.091C165.818 275.516 159.893 277.416 156.343 278.441C154.792 278.941 153.517 279.141 152.467 279.141ZM177.894 243.389C177.644 243.389 177.444 243.439 177.244 243.514C176.469 243.739 175.394 243.989 173.893 244.339C168.793 245.539 159.293 247.789 145.167 252.589C144.542 252.814 144.117 253.164 143.842 253.689C142.742 255.94 144.492 260.915 146.192 265.715C146.442 266.465 146.717 267.215 146.967 267.965C147.417 269.29 147.792 270.54 148.092 271.64C148.867 274.366 149.442 276.316 150.742 277.041C151.742 277.591 153.367 277.516 155.817 276.816C159.343 275.791 165.243 273.891 169.593 272.49C171.118 271.99 172.668 271.49 174.118 271.015C173.868 268.165 177.219 264.64 183.444 261.29C182.394 253.99 181.419 249.289 180.394 246.514C179.444 243.889 178.594 243.389 177.894 243.389Z" fill="#184734"/>
<path d="M180.869 260.04C180.869 262.265 179.069 264.09 176.844 264.09C176.369 264.09 175.894 264.015 175.469 263.84C175.769 263.365 175.944 262.79 175.944 262.165C175.944 260.49 174.619 259.09 172.944 259.015C173.394 257.29 174.969 255.99 176.844 255.99C179.044 256.015 180.869 257.815 180.869 260.04Z" fill="#184734"/>
<path d="M172.769 266.19C170.544 266.19 168.744 264.39 168.744 262.165C168.744 261.415 168.944 260.69 169.344 260.065C169.594 259.665 170.144 259.515 170.544 259.79C170.944 260.04 171.094 260.59 170.819 260.99C170.594 261.34 170.494 261.765 170.494 262.165C170.494 263.415 171.519 264.44 172.769 264.44C173.569 264.44 174.269 264.04 174.694 263.365C174.919 263.015 175.044 262.59 175.044 262.165C175.044 260.94 174.094 259.94 172.869 259.89C172.819 259.89 172.794 259.89 172.769 259.89C172.294 259.89 171.894 259.49 171.894 259.015C171.894 258.54 172.294 258.14 172.769 258.14C172.844 258.14 172.894 258.14 172.969 258.14C175.119 258.24 176.794 260.015 176.794 262.165C176.794 262.915 176.594 263.665 176.194 264.29C175.444 265.49 174.169 266.19 172.769 266.19Z" fill="#184734"/>
<path d="M150.217 262.865C150.117 262.865 150.017 262.865 149.917 262.84C149.317 262.765 148.992 262.465 148.817 262.24C148.117 261.265 147.117 258.115 147.692 257.24C148.092 256.64 149.292 256.015 151.267 255.365C153.192 254.715 154.442 254.515 154.967 254.74C155.968 255.165 156.843 257.69 156.993 258.69C157.043 258.99 157.193 259.915 156.568 260.415C155.942 260.965 152.167 262.865 150.217 262.865ZM150.167 261.14C151.067 261.265 154.367 259.84 155.292 259.215C155.292 258.59 154.667 256.965 154.267 256.415C153.217 256.515 150.042 257.565 149.267 258.165C149.317 258.765 149.692 260.365 150.167 261.14Z" fill="#184734"/>
<path d="M202.97 287.041C202.87 287.041 202.745 287.016 202.645 286.966C194.995 283.891 192.394 279.141 191.569 275.716C191.119 273.816 191.144 272.116 191.269 270.865C187.544 272.741 180.469 274.791 176.794 273.841C175.544 273.516 174.719 272.866 174.344 271.941C173.944 270.99 174.018 269.94 174.569 268.815C176.419 264.89 184.019 260.09 192.644 257.44C193.095 257.29 193.595 257.565 193.745 258.015C193.895 258.465 193.62 258.965 193.17 259.115C185.244 261.565 177.769 266.165 176.169 269.565C175.844 270.24 175.794 270.815 175.994 271.291C176.169 271.691 176.594 271.991 177.269 272.166C177.794 272.291 178.394 272.366 179.069 272.366C183.294 272.366 190.019 269.99 191.969 268.44C192.269 268.19 192.694 268.19 193.02 268.415C193.345 268.64 193.47 269.04 193.345 269.415C193.195 269.84 190.119 280.091 203.295 285.391C203.745 285.566 203.97 286.091 203.77 286.541C203.645 286.841 203.32 287.041 202.97 287.041Z" fill="#184734"/>
<path d="M194.231 429.17C194.683 430.898 194.949 449.383 194.789 450.659C194.603 451.936 152.661 476.697 144.922 479.596C137.182 482.521 129.443 483.506 114.708 478.771C99.9741 474.037 61.463 458.558 59.0161 454.649C56.5693 450.739 55.1863 434.542 55.1863 434.542C55.1863 434.542 39.9733 433.691 36.5956 426.829C34.3616 422.308 19.4412 382.786 17.5794 376.536C15.6911 370.286 15.3454 369.116 24.654 365.765C33.9626 362.44 67.1811 351.004 67.1811 351.004L70.2929 357.28C70.2929 357.28 46.383 364.302 41.8617 366.908C37.3403 369.515 37.0478 374.063 40.718 383.504C44.3883 392.972 55.4523 427.734 56.7289 430.606C58.0055 433.478 106.597 450.606 124.762 457.521C128.671 459.011 132.049 459.463 133.272 458.878C141.57 454.968 166.757 442.946 175.055 438.319C183.353 433.771 194.231 429.17 194.231 429.17Z" fill="#B8E1FF"/>
<path d="M100.639 362.094C100.453 362.094 100.266 362.041 100.107 361.934C99.6813 361.642 99.5749 361.057 99.8941 360.631C102.155 357.44 103.937 354.833 105.373 352.732C110.001 345.977 111.41 343.929 114.123 343.424C115.639 343.131 117.979 343.158 120.24 343.184C122.102 343.211 124.921 343.237 125.453 342.945C125.878 342.706 128.219 340.764 130.48 338.902C139.416 331.535 141.996 329.62 142.98 329.54C144.097 329.461 145.719 330.152 147.155 330.737C147.634 330.95 148.246 331.189 148.592 331.296C150.267 330.152 159.203 321.934 164.682 316.828C165.054 316.482 165.64 316.508 165.985 316.881C166.331 317.253 166.305 317.838 165.932 318.184C165.906 318.21 161.943 321.934 157.927 325.578C149.576 333.211 149.203 333.211 148.698 333.211C148.219 333.211 147.581 332.945 146.411 332.466C145.4 332.04 143.857 331.402 143.166 331.402C143.166 331.402 143.166 331.402 143.139 331.402C141.916 331.854 135.24 337.386 131.623 340.365C128.511 342.918 126.889 344.275 126.357 344.567C125.453 345.099 123.511 345.099 120.187 345.073C118.006 345.046 115.772 345.019 114.442 345.259C112.58 345.604 111.437 347.174 106.889 353.796C105.453 355.897 103.644 358.504 101.383 361.695C101.224 361.961 100.931 362.094 100.639 362.094Z" fill="#184734"/>
<path d="M161.544 315.046C161.145 315.578 165.852 322.918 166.836 322.705C167.82 322.493 170.772 314.939 170.294 314.381C169.788 313.849 162.474 313.796 161.544 315.046Z" fill="#184734"/>
<path d="M166.836 323.104C166.118 323.104 164.868 321.721 163.086 318.982C160.773 315.418 161.092 314.992 161.225 314.833C161.81 314.035 164.017 313.769 165.773 313.689C165.826 313.689 170.001 313.503 170.586 314.168C170.773 314.381 170.906 314.753 170.294 316.641C170.267 316.695 168.219 322.838 166.916 323.131C166.89 323.104 166.863 323.104 166.836 323.104ZM161.916 315.232C162.129 316.296 165.826 321.961 166.783 322.306C167.501 321.828 170.001 315.817 169.948 314.647C168.938 314.248 162.9 314.328 161.916 315.232Z" fill="#184734"/>
<path d="M73.7767 372.014C73.3246 372.014 72.9256 371.669 72.8458 371.217C71.0373 358.743 66.8351 351.536 63.617 347.706C60.1595 343.557 57.0744 342.333 57.0478 342.333C56.702 342.2 56.4626 341.855 56.4626 341.482C56.4626 341.11 56.6754 340.764 57.0478 340.605C63.0319 338.131 73.5639 334.7 83.8566 331.828C91.862 329.594 101.809 327.12 103.857 327.918C106.091 328.769 117.261 333.663 118.006 345.099C118.724 356.057 120.666 361.456 122.288 364.913C122.501 365.392 122.315 365.924 121.836 366.137C121.357 366.35 120.825 366.163 120.612 365.685C118.937 362.068 116.916 356.482 116.171 345.206C115.506 334.913 105.24 330.445 103.192 329.647C100.772 328.796 74.0959 335.95 59.601 341.589C60.9574 342.44 62.8989 343.929 64.9734 346.402C68.3777 350.418 72.8458 357.972 74.7076 370.977C74.7873 371.483 74.415 371.961 73.9097 372.041C73.8831 372.014 73.8299 372.014 73.7767 372.014Z" fill="#184734"/>
<path d="M75.1866 344.301C74.8142 344.301 74.4685 344.089 74.3355 343.716C74.1493 343.238 74.3621 342.706 74.8408 342.493C83.0058 339.168 101.836 333.69 103.245 333.849C103.751 333.902 104.123 334.381 104.07 334.886C104.017 335.365 103.591 335.737 103.112 335.711C101.676 335.817 84.2558 340.684 75.5589 344.222C75.4259 344.275 75.293 344.301 75.1866 344.301ZM103.006 335.711C103.006 335.711 103.033 335.711 103.059 335.711C103.059 335.711 103.033 335.711 103.006 335.711Z" fill="#184734"/>
<path d="M169.39 412.494C168.512 412.494 167.076 412.201 164.629 411.563C162.235 410.925 159.868 410.153 159.842 410.153C159.363 409.994 159.097 409.462 159.23 408.983C159.39 408.504 159.922 408.238 160.4 408.371C163.858 409.488 167.98 410.605 169.257 410.632C171.331 405.393 178.725 374.062 179.177 369.86C177.395 368.717 165.746 366.908 163.14 366.775C162.688 367.52 162.129 370.312 161.837 371.722C161.73 372.307 161.624 372.839 161.517 373.291C161.411 373.796 160.906 374.116 160.4 374.009C159.895 373.903 159.576 373.397 159.682 372.892C159.789 372.467 159.895 371.935 160.001 371.35C160.879 366.881 161.438 364.913 162.874 364.913C163.911 364.913 178.698 366.695 180.64 368.69C180.986 369.036 181.065 369.408 181.039 369.647C180.959 372.759 172.794 407.52 170.773 411.829C170.587 412.228 170.241 412.494 169.39 412.494Z" fill="#184734"/>
<path d="M176.225 405.658C176.065 405.658 175.906 405.632 175.773 405.552C175.32 405.313 175.161 404.728 175.4 404.275C180.959 394.249 189.842 377.999 190.72 375.685C190.081 374.94 186.411 373.131 179.789 371.828C179.283 371.722 178.964 371.243 179.071 370.738C179.177 370.232 179.656 369.913 180.161 370.02C181.438 370.286 192.635 372.6 192.635 375.658C192.635 376.084 192.635 376.669 184.789 391.11C180.959 398.158 177.076 405.127 177.049 405.206C176.863 405.472 176.544 405.658 176.225 405.658Z" fill="#184734"/>
<path d="M181.172 404.728C180.666 404.728 180.241 404.302 180.241 403.797C180.241 403.345 180.241 403.345 182.502 401.137C183.725 399.94 185.427 398.318 187.262 396.536C191.81 392.174 198.459 385.765 200.028 384.062C199.044 383.078 195.56 380.685 190.64 377.839C190.188 377.573 190.055 377.014 190.294 376.562C190.56 376.11 191.119 375.977 191.571 376.217C194.124 377.706 196.624 379.249 198.433 380.499C201.863 382.839 202.316 383.61 201.996 384.461C201.81 384.967 200.667 386.19 188.539 397.866C185.48 400.818 182.315 403.85 181.89 404.302C181.757 404.568 181.491 404.728 181.172 404.728Z" fill="#184734"/>
<path d="M132.261 483C127.448 483 121.783 482.043 114.415 479.675C100.426 475.181 60.9839 459.595 58.2179 455.154C55.6647 451.085 54.3083 435.287 54.2551 434.622C54.2019 434.116 54.6008 433.664 55.1061 433.611C55.6115 433.558 56.0636 433.957 56.1168 434.462C56.4891 438.904 57.8721 451.111 59.7871 454.17C61.8616 457.468 98.7237 472.681 114.974 477.894C129.283 482.495 136.916 481.617 144.575 478.718C151.943 475.952 190.773 453.106 193.885 450.287C194.018 447.787 193.725 431.244 193.353 429.462C192.448 428.265 183.884 424.861 173.964 420.925C170.374 419.489 166.278 417.866 161.943 416.111C161.464 415.925 161.225 415.366 161.437 414.887C161.624 414.409 162.182 414.169 162.661 414.382C166.996 416.137 171.092 417.76 174.682 419.196C190.906 425.659 194.736 427.308 195.161 428.93C195.667 430.818 195.906 449.489 195.72 450.766C195.64 451.297 195.587 451.643 188.512 456.085C184.443 458.611 178.991 461.909 173.166 465.314C162.395 471.617 149.389 478.904 145.267 480.473C141.198 481.989 137.155 483 132.261 483Z" fill="#184734"/>
<path d="M51.9946 435.047C51.968 435.047 51.9414 435.047 51.9414 435.047C48.8031 434.834 38.3774 433.611 35.7178 427.175C33.9891 422.946 18.5899 383.211 16.6484 376.802C15.6909 373.584 15.0526 371.429 16.0899 369.594C17.1271 367.732 19.7867 366.509 24.3347 364.887C33.5369 361.589 66.5427 350.259 66.8618 350.126C67.3406 349.966 67.8725 350.206 68.0321 350.711C68.1916 351.19 67.9523 351.722 67.4469 351.881C67.1278 351.987 34.122 363.344 24.9464 366.615C20.3187 368.264 18.3771 369.328 17.7122 370.472C17.0739 371.615 17.5793 373.344 18.4569 376.217C20.3719 382.6 35.7178 422.201 37.4466 426.403C39.2285 430.712 46.1701 432.707 52.0744 433.132C52.5797 433.159 52.9787 433.611 52.9255 434.116C52.8989 434.675 52.4999 435.047 51.9946 435.047Z" fill="#184734"/>
<path d="M33.8291 370.206H17.5257C17.0204 370.206 16.5948 369.781 16.5948 369.275C16.5948 368.77 17.0204 368.344 17.5257 368.344H33.8291C34.3344 368.344 34.76 368.77 34.76 369.275C34.76 369.807 34.3344 370.206 33.8291 370.206Z" fill="#184734"/>
<path d="M56.702 431.589C56.3031 431.589 55.9573 431.35 55.8244 430.951C55.6914 430.579 43.4306 393.211 39.8135 383.903C36.5954 375.631 35.6379 369.461 41.3827 366.163C45.9572 363.53 69.0426 356.721 70.0267 356.429C70.532 356.296 71.0373 356.562 71.1703 357.067C71.3033 357.573 71.0373 358.078 70.532 358.211C70.2926 358.291 46.6753 365.232 42.287 367.759C38.8827 369.727 37.5795 372.998 41.5423 383.211C45.1859 392.573 57.4467 429.994 57.5797 430.366C57.7393 430.845 57.4733 431.377 56.9946 431.536C56.8882 431.589 56.7818 431.589 56.702 431.589Z" fill="#184734"/>
<path d="M129.389 460.367C129.23 460.367 129.097 460.34 128.964 460.26C128.113 459.835 112.394 453.877 97.208 448.106C81.277 442.069 64.7874 435.818 60.1331 433.93C59.6543 433.744 59.415 433.185 59.6277 432.707C59.8139 432.228 60.3724 431.989 60.8512 432.201C65.4789 434.063 81.9685 440.313 97.8995 446.351C117.235 453.691 129.097 458.186 129.868 458.585C130.32 458.824 130.506 459.383 130.267 459.835C130.028 460.181 129.708 460.367 129.389 460.367Z" fill="#184734"/>
<path d="M133.245 459.888C132.873 459.888 132.554 459.675 132.394 459.329C132.181 458.851 132.421 458.319 132.873 458.106C143.272 453.638 166.251 442.228 174.576 437.6C182.82 432.999 193.751 428.398 193.858 428.345C194.337 428.159 194.868 428.372 195.081 428.85C195.267 429.329 195.055 429.861 194.576 430.074C194.469 430.127 183.618 434.675 175.48 439.249C167.102 443.93 144.043 455.367 133.591 459.861C133.485 459.861 133.378 459.888 133.245 459.888Z" fill="#184734"/>
<path d="M132.527 483C132.022 483 131.623 482.601 131.597 482.096C131.597 481.989 131.224 470.952 131.863 464.064C131.916 463.558 132.368 463.186 132.873 463.213C133.379 463.266 133.751 463.718 133.724 464.223C133.086 470.979 133.458 481.91 133.458 482.016C133.485 482.521 133.086 482.973 132.554 482.973C132.554 483 132.527 483 132.527 483Z" fill="#184734"/>
<path d="M167.422 443.372C167.315 443.372 167.182 443.345 167.076 443.292C166.89 443.212 147.741 435.393 136.969 431.59C136.491 431.43 136.225 430.898 136.411 430.393C136.57 429.914 137.102 429.648 137.608 429.834C148.406 433.638 167.608 441.484 167.794 441.563C168.273 441.749 168.486 442.308 168.299 442.787C168.113 443.159 167.768 443.372 167.422 443.372Z" fill="#184734"/>
<path d="M90.5056 411.909C86.0641 411.909 82.6332 410.074 80.2661 406.457C77.8459 402.76 77.1544 397.972 77.0214 394.621C76.9948 394.116 77.3937 393.664 77.8991 393.637C78.4044 393.611 78.8565 394.01 78.8831 394.515C79.0693 398.983 80.1065 402.76 81.8353 405.419C83.8566 408.531 86.862 410.074 90.7184 410.02C90.7184 410.02 90.7184 410.02 90.745 410.02C91.2503 410.02 91.6758 410.419 91.6758 410.925C91.6758 411.43 91.2769 411.856 90.7716 411.882C90.6652 411.909 90.5854 411.909 90.5056 411.909Z" fill="#184734"/>
<path d="M100.639 417.254C100.32 417.254 100.027 417.095 99.841 416.802C99.841 416.776 98.7772 415.074 97.474 413.318C97.1548 412.919 97.2612 412.334 97.6601 412.015C98.0591 411.696 98.6442 411.802 98.9634 412.201C100.346 414.036 101.384 415.765 101.437 415.845C101.703 416.297 101.57 416.855 101.118 417.121C100.985 417.228 100.798 417.254 100.639 417.254Z" fill="#184734"/>
<path d="M105.426 414.063C105.001 414.063 104.602 413.744 104.522 413.318C104.203 411.722 104.097 409.861 104.15 407.813C104.176 407.308 104.602 406.909 105.107 406.909C105.613 406.935 106.038 407.361 106.012 407.866C105.958 409.781 106.091 411.483 106.357 412.972C106.464 413.478 106.118 413.957 105.613 414.063C105.533 414.063 105.48 414.063 105.426 414.063Z" fill="#184734"/>
<path d="M110.32 415.659C110.16 415.659 109.974 415.605 109.841 415.526C109.415 415.26 109.256 414.675 109.522 414.249C110.559 412.573 112.447 410.313 112.527 410.206C112.846 409.807 113.458 409.754 113.83 410.1C114.229 410.419 114.282 411.031 113.937 411.403C113.91 411.43 112.048 413.664 111.091 415.206C110.931 415.499 110.612 415.659 110.32 415.659Z" fill="#184734"/>
<path d="M65.5321 436.005C65.0534 436.005 64.6544 435.659 64.6013 435.154C64.5481 434.648 64.9204 434.196 65.4257 434.143C71.729 433.505 90.1867 426.616 90.3729 426.536C90.8516 426.35 91.3835 426.59 91.5697 427.095C91.7559 427.574 91.5165 428.106 91.0112 428.292C90.2399 428.584 72.1279 435.34 65.5853 436.005C65.5853 436.005 65.5587 436.005 65.5321 436.005Z" fill="#184734"/>
<path d="M94.7346 393.159C86.7557 395.898 76.6758 398.664 72.7396 399.675C68.8034 400.685 67.048 402.254 64.8671 396.004C63.6969 392.68 62.4735 389.382 61.4362 386.563C60.7979 384.834 60.2394 383.291 59.8139 382.041C59.6277 381.509 59.4681 381.031 59.3086 380.605C58.2713 377.52 59.5213 374.834 61.915 373.903C74.0694 369.249 87.9526 365.658 91.5164 364.727C94.2824 364.009 95.825 364.062 97.6601 368.398C98.192 369.648 98.7506 371.243 99.3889 373.291C99.4155 373.344 99.4155 373.398 99.4421 373.424C102.261 382.68 103.272 385.712 103.618 387.786C103.99 389.861 102.687 390.419 94.7346 393.159Z" fill="#F8F9FA"/>
<path d="M68.6969 401.536C66.8618 401.536 65.399 400.393 63.9628 396.324C62.8724 393.238 61.7553 390.18 60.7713 387.494L60.3192 386.244C59.7606 384.754 59.3085 383.451 58.9096 382.334C58.7234 381.802 58.5638 381.323 58.4042 380.898C57.2606 377.493 58.5904 374.196 61.5692 373.052C69.5746 369.967 80.1332 366.722 91.277 363.85C94.6015 362.999 96.5164 363.398 98.5111 368.052C99.0431 369.302 99.6282 370.951 100.266 373.052C100.266 373.079 100.293 373.105 100.293 373.158L100.32 373.212C100.958 375.313 101.516 377.095 101.969 378.611C103.564 383.85 104.229 386.031 104.522 387.68C105.054 390.632 102.926 391.35 95.0271 394.089C87.1812 396.802 77.1545 399.542 72.9523 400.632C72.447 400.765 71.9948 400.898 71.5427 401.031C70.4789 401.297 69.548 401.536 68.6969 401.536ZM93.5643 365.312C93.0323 365.312 92.4472 365.472 91.7291 365.658C80.6652 368.504 70.1863 371.749 62.2341 374.781C60.1862 375.552 59.3351 377.839 60.1596 380.313C60.2926 380.738 60.4521 381.19 60.6383 381.722C61.0106 382.813 61.4894 384.116 62.0479 385.605L62.5 386.829C63.4841 389.515 64.6011 392.6 65.7182 395.685C66.516 397.972 67.2607 399.196 68.0586 399.542C68.7501 399.861 69.7076 399.568 71.0108 399.169C71.4629 399.036 71.9682 398.877 72.5002 398.744C76.6758 397.68 86.6227 394.941 94.4153 392.254C98.2186 390.951 100.612 390.1 101.836 389.382C102.846 388.797 102.793 388.478 102.713 387.946C102.447 386.403 101.782 384.276 100.213 379.116C99.7346 377.6 99.2026 375.818 98.5643 373.717L98.5377 373.584C97.8994 371.509 97.3675 369.94 96.8356 368.77C95.6388 366.057 94.7345 365.312 93.5643 365.312Z" fill="#184734"/>
<path d="M99.3886 373.318C92.8193 375.366 73.1648 381.642 61.4093 386.563C60.771 384.834 60.2125 383.291 59.787 382.041C67.7924 378.584 85.4522 371.137 97.6598 368.424C98.1917 369.674 98.7503 371.27 99.3886 373.318Z" fill="#184734"/>
<path d="M61.4097 386.962C61.3565 386.962 61.3033 386.962 61.2501 386.935C61.1437 386.882 61.0639 386.802 61.0373 386.696L60.798 386.057C60.2394 384.568 59.7873 383.265 59.3884 382.174C59.3086 381.988 59.415 381.749 59.6011 381.669C76.1439 374.541 88.91 369.94 97.5538 368.025C97.7399 367.972 97.9261 368.078 98.0059 368.265C98.5378 369.488 99.0963 371.11 99.7347 373.211C99.7878 373.424 99.6815 373.637 99.4687 373.717C93.5644 375.578 73.3779 381.988 61.5427 386.935C61.5161 386.935 61.4629 386.962 61.4097 386.962ZM60.2926 382.254C60.665 383.265 61.0905 384.435 61.5693 385.791L61.649 386.031C73.3247 381.19 92.6069 375.02 98.8836 373.052C98.3517 371.35 97.8729 369.967 97.4208 368.876C88.8834 370.818 76.4099 375.312 60.2926 382.254Z" fill="#184734"/>
<path d="M90.1333 386.137C89.4152 386.137 88.9364 385.898 88.6439 385.445C88.6173 385.419 86.3566 381.695 87.4205 380.419C88.2183 379.461 92.6865 377.812 94.3886 377.679C94.7344 377.653 95.2663 377.653 95.6387 377.999C96.5695 378.823 97.1014 382.254 97.0217 383.078C96.9685 383.504 96.8089 383.823 96.4897 383.983C96.2504 384.116 94.7078 384.834 93.1652 385.392C91.862 385.898 90.878 386.137 90.1333 386.137ZM90.1067 384.275C90.9843 384.355 93.8833 383.238 95.1599 382.626C95.1067 381.828 94.761 380.206 94.4684 379.568C93.3514 379.647 89.9205 380.924 88.9896 381.536C89.0694 382.094 89.5748 383.398 90.1067 384.275Z" fill="#184734"/>
<path d="M98.2185 431.244C97.6865 431.244 97.261 430.898 97.128 430.34C96.8355 429.196 97.8461 426.297 98.1653 425.446C98.8036 423.717 99.7876 421.536 100.798 420.978C102.607 419.967 111.836 420.632 112.447 420.765C112.846 420.845 113.458 420.951 114.761 424.329C115.293 425.685 115.958 427.707 116.064 428.877C116.144 429.728 115.905 430.26 115.346 430.499C113.618 431.191 107.421 431.244 98.8302 431.271L98.2185 431.244ZM105.639 422.308C103.777 422.308 102.128 422.388 101.703 422.627C100.878 423.185 99.2025 427.654 98.9632 429.382C104.522 429.382 111.915 429.382 114.203 428.877C114.017 427.441 112.58 423.478 111.889 422.574C110.931 422.441 108.086 422.308 105.639 422.308Z" fill="#184734"/>
<path d="M91.6494 439.968C89.0164 439.968 88.1387 439.888 87.9259 438.984C87.66 437.733 90.7451 431.031 91.3037 430.207C91.5962 429.755 92.1281 429.595 93.6973 429.489C95.2133 429.382 97.6601 429.356 99.8942 429.409C104.017 429.515 104.283 429.808 104.549 430.1C104.947 430.526 106.251 432.92 106.809 434.01C108.804 437.787 108.644 438.212 108.485 438.611C108.352 438.957 108.059 439.223 107.687 439.249C107.288 439.303 102.527 439.595 98.0857 439.781C95.4261 439.888 93.2984 439.941 91.7558 439.941C91.7292 439.968 91.7026 439.968 91.6494 439.968ZM89.9207 438.079C92.793 438.265 103.033 437.733 106.437 437.494C105.719 435.845 103.857 432.414 103.272 431.51C101.729 431.191 94.2558 431.164 92.7132 431.483C92.0217 432.68 90.426 436.43 89.9207 438.079Z" fill="#184734"/>
<path d="M109.602 439.276C107.66 439.276 106.969 439.143 106.756 438.398C106.676 438.159 106.517 437.601 107.847 434.037C109.176 430.499 109.708 430.1 109.894 429.967C110.639 429.409 114.522 429.223 115.692 429.196C120.932 429.037 121.836 429.755 122.129 429.967C123.485 431.058 126.038 436.324 125.639 437.68C125.506 438.132 125.161 438.425 124.735 438.478C124.363 438.531 120.187 438.824 115.985 439.037C113.618 439.17 111.703 439.223 110.32 439.249C110.027 439.276 109.815 439.276 109.602 439.276ZM108.671 437.414C111.384 437.547 120.772 436.962 123.698 436.749C123.272 435.313 121.783 432.148 120.932 431.483C119.921 430.792 112.527 431.084 110.985 431.537C110.453 432.281 109.097 435.819 108.671 437.414Z" fill="#184734"/>
<path d="M190.108 420.473C189.709 420.473 189.39 420.446 189.204 420.419C188.778 420.313 188.459 420.1 188.299 419.781C187.927 419.01 186.943 415.898 186.81 415.552C186.65 415.074 186.916 414.542 187.422 414.382C187.9 414.223 188.432 414.489 188.592 414.994C188.964 416.111 189.523 417.84 189.842 418.664C191.704 418.797 199.416 417.707 201.252 417.148C201.305 415.18 199.656 407.068 199.071 405.419C198.432 405.286 196.092 405.18 187.342 406.324C186.836 406.377 186.358 406.031 186.305 405.526C186.225 405.02 186.597 404.542 187.102 404.488C190.454 404.036 193.087 403.77 195.108 403.611C199.23 403.292 200.161 403.584 200.587 404.276C201.119 405.153 202.262 411.137 202.262 411.191C203.512 417.76 203.06 418.159 202.635 418.531C201.704 419.302 193.22 420.473 190.108 420.473Z" fill="#184734"/>
<path d="M187.847 410.712C187.422 410.712 187.05 410.419 186.943 409.994C186.837 409.488 187.156 408.983 187.661 408.877C191.651 407.972 200.348 407.414 200.72 407.387C201.225 407.361 201.677 407.733 201.704 408.265C201.731 408.77 201.358 409.222 200.826 409.249C200.747 409.249 191.917 409.834 188.06 410.712C187.98 410.712 187.927 410.712 187.847 410.712Z" fill="#184734"/>
<path d="M188.486 414.435C188.033 414.435 187.634 414.116 187.555 413.664C187.475 413.159 187.821 412.68 188.326 412.6C192.236 411.962 201.119 411.43 201.491 411.403C201.996 411.377 202.448 411.776 202.475 412.281C202.502 412.786 202.103 413.238 201.597 413.265C201.518 413.265 192.422 413.823 188.592 414.435C188.592 414.435 188.539 414.435 188.486 414.435Z" fill="#184734"/>
<path d="M158.698 371.35C158.219 371.35 157.82 370.977 157.767 370.498C157.395 366.03 156.81 358.982 156.57 357.174C155.56 356.988 152.874 357.041 151.943 357.254C151.81 358.238 152.049 361.323 152.262 363.637C152.368 364.86 152.475 366.137 152.554 367.387C152.581 367.892 152.209 368.344 151.677 368.371C151.171 368.397 150.719 368.025 150.693 367.493C150.613 366.27 150.507 365.02 150.4 363.796C149.895 357.892 149.868 356.456 150.666 355.817C151.677 355.02 156.251 355.126 157.368 355.445C157.874 355.605 158.193 355.871 158.299 356.243C158.485 356.802 159.124 364.222 159.629 370.339C159.682 370.844 159.283 371.296 158.778 371.35C158.751 371.35 158.725 371.35 158.698 371.35Z" fill="#184734"/>
<path d="M169.629 378.265C169.842 377.281 139.363 353.211 135.56 353.557C132.421 353.849 106.756 379.568 105.426 383.504C104.974 384.834 111.57 385.153 112.288 385.206C112.368 385.206 112.793 384.834 113.485 384.195C115.001 395.818 118.857 427.334 119.921 427.441C121.171 427.521 163.778 425.047 165.294 424.01C166.517 423.185 164.257 393.158 163.326 381.562C165.108 381.961 169.443 379.142 169.629 378.265Z" fill="#F8F9FA"/>
<path d="M120.001 428.345C119.921 428.345 119.868 428.345 119.841 428.345C118.99 428.292 118.698 427.813 117.953 423.584C117.554 421.324 117.022 418.026 116.437 413.797C115.346 406.057 114.123 396.589 113.245 389.674C112.713 385.392 112.261 382.015 112.075 380.711C111.995 380.206 112.341 379.727 112.846 379.648C113.352 379.568 113.83 379.913 113.91 380.419C114.096 381.749 114.549 385.153 115.08 389.435C116.49 400.499 119.362 422.999 120.453 426.483C125.4 426.377 160.586 424.196 164.576 423.239C165.241 419.754 163.379 393.398 162.023 377.094C161.969 376.589 162.368 376.137 162.874 376.084C163.379 376.03 163.831 376.429 163.884 376.935C163.884 377.041 164.842 388.557 165.613 400.047C167.182 423.797 166.491 424.276 165.799 424.754C165.4 425.02 164.602 425.579 142.554 427.042C132.953 427.707 121.623 428.345 120.001 428.345Z" fill="#184734"/>
<path d="M130.001 427.84C129.549 427.84 129.15 427.52 129.07 427.068C128.113 421.031 127.182 414.488 126.57 409.542C125.347 399.355 125.825 399.036 126.437 398.664C127.262 398.132 130.985 397.733 132.102 397.627C137.155 397.148 137.634 397.626 137.9 397.919C138.219 398.265 138.512 398.557 140.028 412.573C140.772 419.355 141.411 426.138 141.437 426.191C141.491 426.696 141.118 427.148 140.613 427.201C140.108 427.255 139.655 426.882 139.602 426.377C138.698 416.988 137.102 401.962 136.517 399.329C134.948 399.142 129.23 399.754 127.687 400.18C127.474 402.414 128.857 413.983 130.905 426.802C130.985 427.308 130.639 427.786 130.134 427.866C130.107 427.84 130.054 427.84 130.001 427.84Z" fill="#184734"/>
<path d="M149.363 414.063C147.953 414.063 146.943 413.664 146.597 412.627C146.225 411.483 145.932 408.983 145.799 406.988C145.533 402.706 146.038 402.148 146.677 401.882C147.9 401.377 150.746 401.35 151.597 401.35C155.507 401.377 155.826 401.908 156.038 402.281C156.544 403.185 156.996 410.499 156.304 412.068C156.065 412.6 155.719 412.786 155.453 412.839C155.347 412.866 155.187 412.919 154.975 412.972C152.9 413.611 150.905 414.063 149.363 414.063ZM147.661 403.531C147.421 404.914 147.767 410.339 148.326 412.042C148.432 412.148 149.256 412.707 154.416 411.244C154.496 411.217 154.549 411.217 154.629 411.191C154.975 409.887 154.655 404.887 154.416 403.451C153.193 403.159 149.177 403.132 147.661 403.531Z" fill="#184734"/>
<path d="M162.927 463.026C159.815 463.026 156.863 462.255 154.682 460.739C153.06 459.595 152.714 457.601 153.406 456.484C153.858 455.765 154.895 455.234 156.331 456.058C159.576 457.893 166.677 457.893 170.64 455.154C172.661 453.744 173.512 451.882 173.167 449.595C172.98 448.345 173.486 447.707 173.832 447.441C174.363 447.015 175.108 446.936 175.826 447.228C176.757 447.6 177.821 448.638 178.113 450.499C178.699 454.382 176.863 457.867 172.927 460.287C169.975 462.122 166.358 463.026 162.927 463.026ZM154.975 457.521C154.948 457.574 154.922 457.707 154.948 457.946C155.028 458.425 155.321 458.904 155.773 459.223C159.736 462.016 166.996 461.776 171.97 458.691C173.858 457.521 176.917 454.941 176.278 450.765C176.172 450.021 175.826 449.382 175.374 449.063C175.215 448.957 175.082 448.904 175.028 448.904C175.002 448.957 175.002 449.09 175.028 449.303C175.507 452.308 174.363 454.861 171.73 456.696C167.076 459.914 159.31 459.861 155.454 457.68C155.188 457.547 155.028 457.521 154.975 457.521Z" fill="#184734"/>
<path d="M179.603 422.893C185.698 422.893 190.64 417.951 190.64 411.855C190.64 405.76 185.698 400.818 179.603 400.818C173.507 400.818 168.565 405.76 168.565 411.855C168.565 417.951 173.507 422.893 179.603 422.893Z" fill="#F8F9FA"/>
<path d="M179.603 423.824C173.007 423.824 167.634 418.451 167.634 411.855C167.634 405.259 173.007 399.887 179.603 399.887C186.198 399.887 191.571 405.259 191.571 411.855C191.571 418.451 186.198 423.824 179.603 423.824ZM179.603 401.749C174.044 401.749 169.496 406.27 169.496 411.855C169.496 417.414 174.017 421.962 179.603 421.962C185.161 421.962 189.709 417.441 189.709 411.855C189.709 406.27 185.161 401.749 179.603 401.749Z" fill="#184734"/>
<path d="M182.954 413.238C183.113 413.85 183.087 414.356 182.927 414.808C182.768 415.26 182.422 415.632 181.89 415.951L182.289 417.52C182.289 417.574 182.289 417.6 182.262 417.653C182.236 417.68 182.209 417.707 182.156 417.733L180.055 418.265C180.002 418.265 179.975 418.265 179.922 418.239C179.895 418.212 179.869 418.185 179.842 418.132L179.496 416.723C179.097 416.802 178.725 416.856 178.406 416.909C178.353 416.909 178.326 416.909 178.3 416.882C178.273 416.856 178.246 416.829 178.22 416.776L177.954 415.047C177.954 414.994 177.954 414.941 177.98 414.914C178.007 414.887 178.06 414.861 178.113 414.861C178.246 414.861 178.379 414.861 178.539 414.834C178.672 414.834 178.858 414.808 179.097 414.781C179.31 414.754 179.523 414.728 179.709 414.675C179.922 414.621 180.082 414.568 180.215 414.462C180.348 414.382 180.427 414.276 180.454 414.169C180.48 414.063 180.507 413.983 180.507 413.903C180.507 413.824 180.507 413.77 180.507 413.717C180.48 413.664 180.454 413.611 180.427 413.531C180.374 413.478 180.321 413.398 180.241 413.318C180.161 413.238 180.002 413.159 179.816 413.105C179.629 413.052 179.417 413.026 179.151 413.026C178.858 413.026 178.566 412.999 178.3 412.893C178.007 412.813 177.741 412.68 177.475 412.494C177.209 412.334 176.97 412.095 176.757 411.776C176.544 411.483 176.385 411.111 176.278 410.738C176.145 410.18 176.172 409.675 176.358 409.222C176.544 408.77 176.89 408.398 177.369 408.079L176.97 406.456C176.97 406.403 176.97 406.377 176.996 406.323C177.023 406.27 177.05 406.244 177.103 406.244L179.204 405.712C179.257 405.712 179.284 405.712 179.337 405.738C179.39 405.765 179.417 405.792 179.417 405.845L179.762 407.254C180.135 407.175 180.507 407.121 180.879 407.068C180.933 407.068 180.959 407.068 181.012 407.095C181.066 407.121 181.066 407.148 181.092 407.201L181.358 408.93C181.358 408.983 181.358 409.01 181.305 409.063C181.278 409.116 181.225 409.116 181.172 409.116C180.56 409.143 180.002 409.196 179.55 409.302C179.363 409.355 179.177 409.409 179.071 409.515C178.938 409.595 178.858 409.701 178.832 409.808C178.805 409.914 178.778 409.994 178.752 410.074C178.752 410.153 178.752 410.207 178.752 410.26C178.752 410.313 178.778 410.366 178.832 410.446C178.885 410.499 178.938 410.579 179.044 410.659C179.151 410.738 179.284 410.818 179.47 410.871C179.656 410.925 179.869 410.951 180.135 410.951C180.427 410.951 180.693 411.004 180.986 411.084C181.278 411.164 181.544 411.297 181.81 411.483C182.076 411.669 182.316 411.909 182.528 412.201C182.688 412.494 182.848 412.84 182.954 413.238Z" fill="#184734"/>
<path d="M180.028 418.637C179.922 418.637 179.816 418.611 179.736 418.558C179.603 418.478 179.523 418.345 179.47 418.212L179.204 417.175C178.938 417.228 178.699 417.254 178.459 417.281C178.326 417.308 178.167 417.254 178.06 417.175C177.954 417.095 177.874 416.962 177.847 416.829V416.802L177.581 415.073C177.555 414.914 177.608 414.754 177.714 414.621C177.821 414.488 177.98 414.435 178.14 414.409C178.273 414.409 178.406 414.409 178.539 414.382C178.672 414.382 178.858 414.355 179.071 414.329C179.284 414.302 179.47 414.276 179.629 414.222C179.789 414.196 179.895 414.143 180.002 414.089C180.082 414.036 180.108 413.983 180.108 413.983C180.135 413.903 180.135 413.85 180.161 413.823C180.161 413.797 180.161 413.77 180.161 413.77C180.161 413.77 180.161 413.744 180.135 413.717C180.135 413.69 180.082 413.664 180.002 413.557C179.975 413.531 179.922 413.478 179.736 413.424C179.576 413.371 179.39 413.345 179.204 413.371C178.885 413.371 178.539 413.318 178.22 413.238C177.901 413.132 177.581 412.999 177.289 412.813C176.97 412.627 176.704 412.334 176.438 411.988C176.198 411.643 176.012 411.244 175.906 410.818C175.746 410.18 175.773 409.595 175.986 409.063C176.172 408.611 176.491 408.238 176.917 407.892L176.571 406.536C176.544 406.403 176.544 406.244 176.624 406.111C176.704 405.978 176.837 405.871 176.97 405.845L179.071 405.313C179.23 405.286 179.363 405.313 179.496 405.366C179.629 405.446 179.736 405.579 179.762 405.712L180.028 406.749C180.294 406.696 180.56 406.669 180.8 406.616C180.959 406.589 181.092 406.642 181.199 406.722C181.332 406.802 181.411 406.962 181.438 407.121L181.704 408.85C181.73 409.01 181.677 409.169 181.598 409.275C181.491 409.408 181.332 409.488 181.172 409.488C180.613 409.515 180.082 409.568 179.629 409.674C179.47 409.701 179.363 409.754 179.284 409.807C179.204 409.861 179.177 409.914 179.177 409.914C179.151 410.02 179.124 410.047 179.124 410.073C179.124 410.1 179.124 410.127 179.124 410.127C179.124 410.127 179.124 410.153 179.151 410.18C179.151 410.18 179.177 410.233 179.284 410.313C179.31 410.339 179.39 410.393 179.55 410.446C179.709 410.499 179.869 410.499 180.082 410.499C180.401 410.499 180.72 410.552 181.039 410.632C181.358 410.738 181.677 410.871 181.97 411.057C182.289 411.27 182.555 411.536 182.794 411.882C183.034 412.228 183.22 412.627 183.326 413.052C183.486 413.744 183.486 414.355 183.3 414.861C183.14 415.313 182.794 415.712 182.342 416.031L182.661 417.334C182.688 417.494 182.688 417.627 182.608 417.76C182.528 417.893 182.395 417.972 182.262 418.026L180.161 418.558C180.108 418.637 180.055 418.637 180.028 418.637ZM179.975 417.866C179.949 417.866 179.975 417.866 179.975 417.866V417.866ZM179.496 416.323C179.683 416.323 179.842 416.456 179.895 416.616L180.188 417.813L181.837 417.387L181.491 416.031C181.438 415.871 181.518 415.685 181.677 415.579C182.129 415.313 182.422 414.994 182.555 414.648C182.688 414.276 182.688 413.823 182.555 413.318C182.475 412.972 182.342 412.68 182.156 412.414C181.97 412.148 181.784 411.962 181.544 411.802C181.305 411.643 181.066 411.536 180.8 411.456C180.56 411.377 180.294 411.35 180.055 411.35C179.762 411.35 179.523 411.323 179.284 411.244C179.044 411.164 178.858 411.084 178.699 410.951C178.566 410.845 178.486 410.738 178.433 410.632C178.379 410.526 178.326 410.446 178.3 410.339C178.273 410.233 178.273 410.127 178.273 410.02C178.273 409.914 178.326 409.807 178.353 409.674C178.433 409.488 178.539 409.329 178.752 409.196C178.911 409.063 179.124 408.983 179.39 408.93C179.816 408.823 180.294 408.77 180.826 408.744L180.64 407.494C180.347 407.547 180.055 407.6 179.762 407.653C179.55 407.706 179.337 407.573 179.284 407.361L178.991 406.164L177.342 406.589L177.688 407.999C177.741 408.158 177.661 408.345 177.528 408.424C177.103 408.69 176.837 409.01 176.677 409.382C176.518 409.754 176.518 410.153 176.624 410.632C176.704 410.978 176.837 411.27 177.023 411.536C177.209 411.802 177.422 411.988 177.635 412.148C177.874 412.307 178.113 412.414 178.379 412.494C178.619 412.573 178.858 412.6 179.124 412.6C179.417 412.6 179.683 412.627 179.895 412.706C180.135 412.786 180.347 412.893 180.48 413.026C180.587 413.132 180.693 413.238 180.746 413.318C180.8 413.424 180.853 413.531 180.879 413.611C180.906 413.717 180.906 413.823 180.906 413.93C180.906 414.036 180.879 414.169 180.826 414.302C180.773 414.488 180.64 414.621 180.427 414.781C180.268 414.914 180.055 414.994 179.789 415.047C179.603 415.1 179.39 415.127 179.151 415.153C178.911 415.18 178.725 415.206 178.592 415.206C178.539 415.206 178.459 415.206 178.406 415.206L178.592 416.456C178.858 416.43 179.124 416.377 179.417 416.297C179.443 416.323 179.47 416.323 179.496 416.323ZM181.119 408.717C181.092 408.717 181.119 408.717 181.119 408.717C181.092 408.717 181.119 408.717 181.119 408.717Z" fill="#184734"/>
<path d="M105.426 383.504C104.974 384.834 111.57 385.179 112.288 385.206C112.979 385.259 134.389 362.227 136.278 362.094C138.166 361.961 161.597 380.153 162.927 381.323C164.257 382.52 169.443 379.222 169.629 378.238C169.842 377.254 139.363 353.184 135.559 353.53C132.421 353.849 106.756 379.568 105.426 383.504Z" fill="#F8F9FA"/>
<path d="M112.341 386.137C112.315 386.137 112.261 386.137 112.208 386.137H112.102C105.639 385.765 105.001 384.834 104.708 384.382C104.469 384.036 104.416 383.61 104.549 383.211C105.346 380.844 112.926 372.759 119.15 366.536C123.246 362.44 133.06 352.865 135.48 352.652C136.171 352.599 138.246 352.413 153.326 363.69C160.879 369.355 168.565 375.578 170.108 377.307C170.294 377.52 170.666 377.945 170.56 378.477C170.294 379.754 167.182 381.642 165.321 382.254C163.964 382.706 162.954 382.626 162.315 382.041C160.454 380.366 139.256 364.089 136.357 363.078C134.629 364.036 126.091 372.759 120.958 378.025C113.458 385.632 112.9 386.137 112.341 386.137ZM106.49 383.424C106.995 383.637 108.405 384.036 112.049 384.249C112.953 383.477 116.357 380.02 119.629 376.669C131.756 364.275 135.028 361.243 136.224 361.137C136.81 361.083 137.794 361.03 150.374 370.445C156.624 375.126 162.821 379.967 163.565 380.605C163.725 380.685 164.629 380.632 166.251 379.78C167.315 379.222 168.113 378.61 168.512 378.238C166.996 376.722 160.852 371.589 152.953 365.658C141.092 356.748 136.517 354.434 135.693 354.461C134.602 354.674 128.857 359.488 120.347 367.972C113.352 374.94 107.634 381.35 106.49 383.424Z" fill="#184734"/>
</g>
<defs>
<linearGradient id="paint0_linear_756_938" x1="-103" y1="-190" x2="168" y2="292.5" gradientUnits="userSpaceOnUse">
<stop stop-color="#184734"/>
<stop offset="1" stop-color="#184734" stop-opacity="0"/>
</linearGradient>
<clipPath id="clip0_756_938">
<rect width="360" height="491" fill="white"/>
</clipPath>
</defs>
</svg>
