<svg width="15" height="15" viewBox="0 0 15 15" fill="none" xmlns="http://www.w3.org/2000/svg">
<g id="assets">
<mask id="mask0_561_2706" style="mask-type:alpha" maskUnits="userSpaceOnUse" x="0" y="0" width="15" height="15">
<rect id="Bounding box" x="0.5" y="0.629639" width="14" height="14" fill="#D9D9D9"/>
</mask>
<g mask="url(#mask0_561_2706)">
<path id="currency_rupee_circle" d="M8.82704 10.6922C8.93399 10.5949 8.99232 10.4734 9.00204 10.3276C9.01177 10.1817 8.96315 10.0554 8.85621 9.94841L7.23746 8.24216L7.25204 8.19841H7.39788C7.92288 8.19841 8.35795 8.03799 8.70308 7.71716C9.04822 7.39633 9.25968 7.02202 9.33746 6.59424H9.58538C9.6826 6.59424 9.76281 6.56021 9.826 6.49216C9.8892 6.4241 9.92079 6.34146 9.92079 6.24424C9.92079 6.14702 9.8892 6.06681 9.826 6.00362C9.76281 5.94042 9.6826 5.90883 9.58538 5.90883H9.32288C9.29371 5.76299 9.24267 5.62445 9.16975 5.4932C9.09684 5.36195 9.0069 5.23313 8.89996 5.10674H9.58538C9.6826 5.10674 9.76281 5.07271 9.826 5.00466C9.8892 4.9366 9.92079 4.85397 9.92079 4.75674C9.92079 4.65952 9.8892 4.57931 9.826 4.51612C9.76281 4.45292 9.6826 4.42133 9.58538 4.42133H5.50204C5.38538 4.42133 5.28572 4.46265 5.20308 4.54528C5.12045 4.62792 5.07913 4.72758 5.07913 4.84424C5.07913 4.96091 5.12045 5.05813 5.20308 5.13591C5.28572 5.21369 5.38538 5.25258 5.50204 5.25258H7.35413C7.6069 5.25258 7.8135 5.31577 7.97392 5.44216C8.13433 5.56855 8.24371 5.7241 8.30204 5.90883H5.41454C5.31732 5.90883 5.23711 5.94285 5.17392 6.01091C5.11072 6.07896 5.07913 6.1616 5.07913 6.25883C5.07913 6.35605 5.11072 6.43626 5.17392 6.49945C5.23711 6.56265 5.31732 6.59424 5.41454 6.59424H8.31663C8.25829 6.78869 8.14649 6.9564 7.98121 7.09737C7.81593 7.23834 7.59232 7.30883 7.31038 7.30883H6.31871C6.19232 7.30883 6.08295 7.33799 5.99058 7.39633C5.89822 7.45466 5.82774 7.5373 5.77913 7.64424C5.73052 7.75119 5.71593 7.86056 5.73538 7.97237C5.75482 8.08417 5.80829 8.18869 5.89579 8.28591L8.08329 10.6776C8.18052 10.7845 8.30204 10.838 8.44788 10.838C8.59371 10.838 8.7201 10.7894 8.82704 10.6922ZM7.49996 13.463C6.69302 13.463 5.93468 13.3099 5.22496 13.0036C4.51524 12.6974 3.89788 12.2817 3.37288 11.7567C2.84788 11.2317 2.43225 10.6144 2.126 9.90466C1.81975 9.19494 1.66663 8.4366 1.66663 7.62966C1.66663 6.82271 1.81975 6.06438 2.126 5.35466C2.43225 4.64494 2.84788 4.02758 3.37288 3.50258C3.89788 2.97758 4.51524 2.56195 5.22496 2.2557C5.93468 1.94945 6.69302 1.79633 7.49996 1.79633C8.3069 1.79633 9.06524 1.94945 9.77496 2.2557C10.4847 2.56195 11.102 2.97758 11.627 3.50258C12.152 4.02758 12.5677 4.64494 12.8739 5.35466C13.1802 6.06438 13.3333 6.82271 13.3333 7.62966C13.3333 8.4366 13.1802 9.19494 12.8739 9.90466C12.5677 10.6144 12.152 11.2317 11.627 11.7567C11.102 12.2817 10.4847 12.6974 9.77496 13.0036C9.06524 13.3099 8.3069 13.463 7.49996 13.463Z" fill="#9E9E9E"/>
</g>
</g>
</svg>
