<svg width="14" height="15" viewBox="0 0 14 15" fill="none" xmlns="http://www.w3.org/2000/svg">
<g id="spends">
<mask id="mask0_561_2722" style="mask-type:alpha" maskUnits="userSpaceOnUse" x="0" y="0" width="14" height="15">
<rect id="Bounding box" y="0.629639" width="14" height="14" fill="#D9D9D9"/>
</mask>
<g mask="url(#mask0_561_2722)">
<path id="local_mall" d="M2.91673 13.463C2.59589 13.463 2.32124 13.3487 2.09277 13.1203C1.8643 12.8918 1.75006 12.6171 1.75006 12.2963V5.29632C1.75006 4.97548 1.8643 4.70083 2.09277 4.47236C2.32124 4.24388 2.59589 4.12965 2.91673 4.12965H4.08339C4.08339 3.3227 4.36777 2.63486 4.93652 2.06611C5.50527 1.49736 6.19312 1.21298 7.00006 1.21298C7.80701 1.21298 8.49485 1.49736 9.0636 2.06611C9.63235 2.63486 9.91673 3.3227 9.91673 4.12965H11.0834C11.4042 4.12965 11.6789 4.24388 11.9074 4.47236C12.1358 4.70083 12.2501 4.97548 12.2501 5.29632V12.2963C12.2501 12.6171 12.1358 12.8918 11.9074 13.1203C11.6789 13.3487 11.4042 13.463 11.0834 13.463H2.91673ZM5.25006 4.12965H8.75006C8.75006 3.64354 8.57992 3.23034 8.23964 2.89007C7.89937 2.54979 7.48617 2.37965 7.00006 2.37965C6.51395 2.37965 6.10076 2.54979 5.76048 2.89007C5.4202 3.23034 5.25006 3.64354 5.25006 4.12965ZM6.98548 8.79632C7.70492 8.79632 8.35631 8.55812 8.93964 8.08173C9.52298 7.60534 9.80978 7.07062 9.80006 6.47757C9.80006 6.31229 9.74659 6.17132 9.63964 6.05465C9.5327 5.93798 9.39659 5.87965 9.23131 5.87965C9.0952 5.87965 8.97367 5.9234 8.86673 6.0109C8.75978 6.0984 8.68201 6.22965 8.63339 6.40465C8.52645 6.77409 8.31742 7.07062 8.00631 7.29423C7.6952 7.51784 7.35492 7.62965 6.98548 7.62965C6.61603 7.62965 6.27332 7.51784 5.95735 7.29423C5.64138 7.07062 5.43478 6.77409 5.33756 6.40465C5.28895 6.21993 5.21603 6.08625 5.11881 6.00361C5.02159 5.92097 4.90492 5.87965 4.76881 5.87965C4.60353 5.87965 4.46499 5.93798 4.35319 6.05465C4.24138 6.17132 4.18548 6.31229 4.18548 6.47757C4.18548 7.07062 4.47228 7.60534 5.04589 8.08173C5.61951 8.55812 6.26603 8.79632 6.98548 8.79632Z" fill="#9E9E9E"/>
</g>
</g>
</svg>
